<?xml version="1.0" standalone="no"?>
<!DOCTYPE svg PUBLIC "-//W3C//DTD SVG 20010904//EN"
 "http://www.w3.org/TR/2001/REC-SVG-20010904/DTD/svg10.dtd">
<svg version="1.0" xmlns="http://www.w3.org/2000/svg"
 width="418.000000pt" height="370.000000pt" viewBox="0 0 418.000000 370.000000"
 preserveAspectRatio="xMidYMid meet">
<metadata>
Created by potrace 1.16, written by Peter Selinger 2001-2019
</metadata>
<g transform="translate(0.000000,370.000000) scale(0.100000,-0.100000)"
fill="#00ff00" stroke="none">
<path d="M2375 3619 c-93 -30 -194 -50 -302 -61 -135 -13 -300 -5 -643 32
-612 67 -939 -26 -1020 -288 -11 -35 -20 -77 -20 -93 l0 -29 -99 6 c-77 5
-114 3 -172 -11 -41 -10 -78 -21 -83 -26 -15 -13 13 -66 55 -103 53 -48 88
-53 234 -34 36 5 47 -42 54 -223 6 -157 8 -169 29 -192 34 -36 41 -83 42 -257
0 -226 34 -332 117 -366 59 -25 89 -6 129 82 77 170 138 238 249 279 81 29
138 61 174 97 46 44 88 140 102 230 12 79 6 224 -12 276 -12 35 -8 34 -141 32
-42 -1 -79 3 -82 9 -3 5 15 17 41 26 132 45 197 105 191 175 -3 30 -7 35 -32
38 -16 2 -66 -8 -111 -22 -102 -32 -105 -32 -105 0 0 37 54 86 125 115 55 21
73 23 215 22 85 0 273 -10 418 -22 610 -49 950 -12 1199 131 89 51 190 139
179 156 -11 18 -16 16 -92 -30 -138 -84 -305 -138 -519 -169 -158 -23 -424
-16 -760 20 -271 30 -320 32 -505 28 -225 -6 -283 -16 -383 -70 -32 -17 -78
-52 -102 -79 -46 -51 -68 -59 -84 -30 -14 26 9 71 59 116 121 109 325 141 719
112 374 -28 656 -18 844 31 78 20 189 72 195 91 4 14 -57 15 -103 1z m-1652
-856 c-14 -37 -86 -144 -110 -163 -37 -29 -81 -27 -89 4 -13 54 45 124 131
159 55 22 76 22 68 0z"/>
<path d="M1297 3173 c-4 -3 -7 -19 -7 -34 0 -21 -9 -33 -35 -49 -19 -12 -35
-27 -35 -33 0 -6 11 -39 25 -74 48 -119 43 -316 -12 -466 -23 -62 -37 -82
-101 -144 l-74 -73 17 -65 c15 -53 17 -88 12 -183 -6 -127 -27 -212 -90 -362
-19 -47 -38 -95 -42 -107 -12 -42 12 -24 49 36 20 32 94 131 164 219 173 217
221 321 244 527 9 85 8 123 -8 253 -21 162 -17 193 16 154 37 -45 45 -98 45
-312 l0 -205 -36 -102 c-46 -130 -83 -191 -193 -317 -188 -215 -256 -348 -256
-501 0 -62 27 -181 54 -242 24 -51 74 -92 96 -78 6 4 10 78 10 178 0 197 11
255 66 357 78 140 166 226 303 295 87 44 131 54 131 31 0 -10 -32 -32 -87 -60
-137 -69 -236 -164 -299 -286 -47 -91 -58 -161 -56 -353 2 -97 -2 -175 -7
-186 -25 -46 -100 -22 -172 55 -52 56 -94 139 -110 216 -17 85 -28 106 -63
117 -18 7 -123 10 -251 10 -176 -1 -232 2 -279 15 -71 20 -112 10 -151 -35
-30 -37 -31 -66 -6 -150 43 -142 51 -281 30 -508 -16 -171 -9 -191 142 -391
112 -147 145 -180 167 -166 10 6 26 169 26 263 0 73 -17 99 -73 109 -88 16
-123 65 -82 115 18 22 19 37 14 204 -3 99 -3 206 1 238 7 50 11 59 36 72 62
32 183 12 262 -44 29 -20 77 -54 107 -75 77 -54 183 -105 248 -119 30 -6 57
-17 60 -23 12 -33 -99 -164 -318 -373 -86 -83 -164 -166 -173 -185 -18 -38
-21 -98 -6 -125 12 -24 65 -45 87 -36 10 5 205 11 433 14 l415 6 91 48 c50 26
109 63 130 82 l39 35 -25 19 c-33 26 -132 58 -206 66 l-59 7 -20 -44 c-16 -34
-28 -46 -61 -57 -38 -13 -44 -13 -98 12 l-57 27 -31 -23 c-27 -20 -44 -22
-191 -27 -89 -3 -168 -4 -175 -1 -52 15 105 148 325 274 203 116 406 285 485
402 58 87 76 107 88 100 33 -21 -6 -103 -104 -214 -31 -36 -56 -68 -56 -72 0
-5 17 -12 38 -16 47 -10 538 -11 574 -1 21 6 30 19 43 59 25 75 109 193 179
251 290 242 729 195 865 -92 83 -174 57 -350 -69 -476 -73 -74 -145 -106 -247
-112 -98 -5 -160 8 -217 48 -77 52 -128 189 -92 245 9 14 21 25 26 25 5 0 16
-27 26 -59 32 -115 108 -171 230 -171 127 0 242 76 285 189 23 63 28 172 10
238 -26 96 -109 177 -229 224 -83 33 -239 33 -334 1 -174 -60 -346 -227 -392
-382 -21 -70 -21 -232 0 -314 28 -109 71 -185 148 -261 117 -116 250 -167 441
-167 319 -1 563 180 641 474 23 90 21 260 -5 359 -48 187 -176 361 -356 487
-419 293 -660 518 -832 777 -95 142 -103 158 -134 254 -18 54 -30 76 -47 84
-22 10 -23 16 -20 71 l3 60 -32 10 c-37 10 -38 15 -21 63 15 42 8 48 -31 28
-18 -9 -36 -13 -41 -10 -6 3 -10 28 -10 55 0 53 -16 73 -35 47 -23 -32 -45
-21 -45 22 0 70 -25 94 -52 51 -7 -11 -19 -20 -26 -20 -11 0 -13 14 -7 70 8
79 -4 93 -32 35 -17 -36 -41 -53 -47 -32 -2 6 -9 33 -16 59 -18 69 -60 78 -60
12 0 -19 -5 -34 -10 -34 -13 0 -30 43 -30 74 0 20 -37 66 -53 66 -4 0 -7 -21
-7 -46 0 -38 -3 -45 -17 -42 -12 2 -20 17 -25 47 -8 49 -34 95 -48 86 -6 -4
-10 -24 -10 -46 0 -52 -15 -49 -42 8 -32 66 -48 67 -48 4 0 -28 -3 -51 -7 -51
-5 0 -21 23 -36 50 -26 47 -44 59 -60 43z"/>
<path d="M2760 2280 c0 -13 24 -37 70 -70 155 -114 218 -258 206 -477 -3 -61
-8 -118 -11 -126 -4 -9 35 -46 117 -109 68 -53 145 -113 171 -134 l48 -37 31
39 c77 96 173 179 262 224 88 45 90 45 190 45 96 0 104 -2 175 -37 41 -21 78
-35 82 -32 18 10 -17 68 -84 140 -85 92 -134 126 -218 154 -55 19 -79 21 -169
17 -58 -3 -132 -13 -165 -22 -105 -30 -98 -32 -117 22 -47 130 -178 293 -278
343 -78 39 -213 80 -266 80 -37 0 -44 -3 -44 -20z"/>
<path d="M817 2168 c-12 -13 -44 -63 -71 -111 l-48 -88 13 -51 c7 -32 10 -84
6 -139 -3 -48 -3 -90 0 -93 10 -10 59 22 85 56 62 82 98 194 97 304 -1 123
-33 171 -82 122z"/>
</g>
</svg>
